<?xml version="1.0" encoding="iso-8859-1"?>
<!-- Generator: Adobe Illustrator 16.0.0, SVG Export Plug-In . SVG Version: 6.00 Build 0)  -->
<!DOCTYPE svg PUBLIC "-//W3C//DTD SVG 1.1//EN" "http://www.w3.org/Graphics/SVG/1.1/DTD/svg11.dtd">
<svg version="1.1" id="Capa_1" xmlns="http://www.w3.org/2000/svg" xmlns:xlink="http://www.w3.org/1999/xlink" x="0px" y="0px"
	 width="556.568px" height="556.568px" viewBox="0 0 556.568 556.568" style="enable-background:new 0 0 556.568 556.568;"
	 xml:space="preserve">
<g>
	<g>
		<path d="M210.37,133.725V43.434c0-2.264,0.116-4.501,0.333-6.708C97.48,66.592,13.985,169.665,13.985,292.27
			c0,145.969,118.33,264.299,264.298,264.299c145.967,0,264.299-118.33,264.299-264.299c0-122.605-83.496-225.678-196.719-255.543
			c0.217,2.207,0.334,4.443,0.334,6.708v90.292c61.441,26.42,104.58,87.531,104.58,158.542c0,95.113-77.381,172.498-172.498,172.498
			c-95.114,0-172.499-77.383-172.499-172.498C105.785,221.256,148.928,160.148,210.37,133.725z"/>
		<path d="M321.718,267.083V125.319V43.434c0-4.226-0.635-8.299-1.76-12.164C314.694,13.21,298.048,0,278.284,0
			c-19.765,0-36.411,13.21-41.674,31.27c-1.126,3.862-1.759,7.938-1.759,12.164v81.886v141.767
			c0,23.988,19.443,43.434,43.434,43.434C302.274,310.516,321.718,291.07,321.718,267.083z"/>
	</g>
</g>
<g>
</g>
<g>
</g>
<g>
</g>
<g>
</g>
<g>
</g>
<g>
</g>
<g>
</g>
<g>
</g>
<g>
</g>
<g>
</g>
<g>
</g>
<g>
</g>
<g>
</g>
<g>
</g>
<g>
</g>
</svg>
